<svg xmlns="http://www.w3.org/2000/svg" viewBox="0 0 506.9 192.53">
  <defs>
    <linearGradient id="gr_1" x1="7.85" x2="184.79" y1="96.38" y2="96.38" data-name="gr 1" gradientUnits="userSpaceOnUse">
      <stop offset="0" stop-color="#68c5ee"/>
      <stop offset=".5" stop-color="#3b92c8"/>
      <stop offset="1" stop-color="#0a5c9f"/>
    </linearGradient>
    <style>
      .cls-1 { fill: #d0ebfb; } .cls-2 { fill: url(#gr_1); } .cls-3 { opacity: 0.26; } .cls-4 { fill: #045b9c; } .cls-5 { opacity: 0.25; } .cls-6 { fill: #fff; } .cls-7 { fill: #ef7fb0; } .cls-8 { fill: #ec609e; } .cls-9 { fill: #a1add9; } .cls-10 { font-size: 72px; fill: #328bc5; } .cls-10, .cls-12 { font-family: BalooTamma2-Medium, &quot;Baloo Tamma 2&quot;; font-weight: 500; } .cls-11 { letter-spacing: -0.02em; } .cls-12 { font-size: 55px; fill: #57b2e1; } .cls-13 { letter-spacing: -0.01em; } .cls-14 { letter-spacing: 0em; } .cls-15 { letter-spacing: 0em; } .cls-16 { letter-spacing: 0em; }
    </style>
  </defs>
  <g id="Слой_2" data-name="Слой 2">
    <g id="Слой_5" data-name="Слой 5">
      <circle cx="96.26" cy="96.26" r="96.26" class="cls-1"/>
      <circle cx="96.32" cy="96.38" r="88.47" class="cls-2"/>
      <g class="cls-3">
        <path d="M100.57 155.92h-27.9A31.9 31.9 0 11104.56 124v27.89a4 4 0 01-3.99 4.03z" class="cls-4"/>
      </g>
      <g class="cls-3">
        <path d="M88 112.28v-27.9a31.9 31.9 0 1131.89 31.9H92a4 4 0 01-4-4z" class="cls-4"/>
      </g>
      <g class="cls-5">
        <path d="M75.64 171c-.52 2.48.3 7.65.31 11.36a87.86 87.86 0 01-26.4-11c-3-7.82-1.47-15.64-1.76-24.71-.42-12.78-8.15-13.41-17.59-19.17-7.86-4.81-15.09-9.67-20.92-15.26a89.44 89.44 0 01-1.43-16 88.06 88.06 0 0114.08-47.86c1.56 2 3.82 2.62 7.64 2.79q3.54-3.57 7.47-1.72L38.15 52a6.22 6.22 0 001.59 5 14.43 14.43 0 007.94-1c3.87-.78 8.13-3.37 12.08-3.5 16.09-.51 5.83 10.62 1 17.76-5.56 8.16-8.07 19.72-18.37 23.51-7.53 2.77-16.71-1-17.06 10.86C25 114 35.88 123.89 44.06 126.7c10 3.44 22.91-1.66 32.65 4.23 7.31 4.42 5.32 18.89 3.51 27.43-.92 4.36-3.65 8.19-4.58 12.64zM87.43 29c-2.23 3.3-5.67 5.92-6.74 9.76-1.14 4.08.5 9.19-2.49 12.19-4.63-3.13-6.64-9.11-6.44-14.69.12-3.3.62-7.3-2.05-9.26-2.36-1.74-6.61-1.25-7.44-4.07-.35-1.2.19-2.55-.23-3.73s-1.87-1.94-2.92-2.84a3.07 3.07 0 01-.25-.26A88 88 0 0190.83 8c.4 7.23.64 15-3.4 21zM184.79 96.27A88.47 88.47 0 01133 176.81c1.14-3.38 3.34-6.6 5-9.83 2.92-5.68 4.29-12 5-18.37.4-3.38.27-7.53-2.67-9.26-1.53-.9-3.41-.85-5.18-.88a45 45 0 01-9.32-1.13c-3.27-.76-6.64-2-8.75-4.64-3.14-3.93-2.52-9.56-1.74-14.52l2.4-15.31c.66-4.19 1.86-9.11 5.82-10.65 2.71-1.06 5.73-.09 8.64.13 8.54.63 16.47-5.44 25-5a14.24 14.24 0 004.47 0 6.85 6.85 0 002.75-1.64c4.49-4.21 4.34-11.35 3-17.36-.58-2.64-1.37-5.35-3.2-7.33s-5-3-7.32-1.6c-3.74 2.21-3.35 8.87-7.47 10.24-3.64 1.2-7.41-3-11.08-1.93-5.12 1.54-3.19 10.51-7.75 13.31-2.36 1.45-5.44.54-7.9-.72-3.06-1.58-6.1-4-6.49-7.46-.53-4.55 3.74-8.11 7.71-10.4s8.58-4.83 9.48-9.32c.31-1.49.14-3 .46-4.54.92-4.33 5.48-6.78 9.7-8.13s8.9-2.38 11.72-5.8a18.46 18.46 0 001.81-2.67 88.26 88.26 0 0127.7 64.31z" class="cls-6"/>
        <path d="M157.09 32a18.46 18.46 0 01-1.74 2.69c-2.82 3.42-7.5 4.45-11.72 5.8s-8.78 3.8-9.7 8.13c-.32 1.49-.15 3.05-.46 4.54-.9 4.49-5.51 7-9.48 9.32s-8.24 5.85-7.71 10.4c.39 3.41 3.43 5.88 6.49 7.46 2.46 1.26 5.54 2.17 7.9.72 4.56-2.8 2.63-11.77 7.75-13.31 3.67-1.12 7.44 3.13 11.08 1.93 4.12-1.37 3.73-8 7.47-10.24 2.32-1.38 5.48-.39 7.32 1.6s2.62 4.69 3.2 7.33c1.31 6 1.46 13.15-3 17.36a6.85 6.85 0 01-2.75 1.64 14.24 14.24 0 01-4.47 0c-7.65-.41-14.81 4.4-22.35 5v.08h16.53a36.08 36.08 0 0030.82-17.32A88.5 88.5 0 00157.09 32zM133.71 101.48V133a4.52 4.52 0 01-4.53 4.52h-2.27l-1-.22c-3.27-.76-6.64-2-8.75-4.64-3.14-3.93-2.52-9.56-1.74-14.52l2.4-15.31c.66-4.19 1.86-9.11 5.82-10.65 2.71-1.06 5.73-.09 8.64.13h.32a36.07 36.07 0 011.11 9.17z" class="cls-6"/>
      </g>
      <path d="M100.24 148.5H72.35a31.9 31.9 0 1131.89-31.9v27.9a4 4 0 01-4 4z" class="cls-7"/>
      <path d="M104.24 116.18H92a4 4 0 01-4-4V88.81a31.92 31.92 0 0116.24 27.37z" class="cls-8"/>
      <g>
        <path d="M84.64 134.69a2 2 0 01-1.86-1.28l-10.43-27.3-10.43 27.3a2 2 0 01-3.73-1.41l12.29-32.2a2 2 0 013.74 0L86.51 132a2 2 0 01-1.15 2.58 2 2 0 01-.72.13z" class="cls-6"/>
        <path d="M73.55 125.89H64a2 2 0 010-4h9.52a2 2 0 010 4z" class="cls-6"/>
      </g>
      <g>
        <path d="M92 108.58h27.89A31.9 31.9 0 1088 76.69v27.89a4 4 0 004 4z" class="cls-9"/>
        <path d="M119.89 70.41a2 2 0 01-2-2v-8.72a2 2 0 114 0v8.72a2 2 0 01-2 2z" class="cls-6"/>
        <path d="M135.63 71.45h-31.47a2 2 0 010-4h31.47a2 2 0 010 4z" class="cls-6"/>
        <path d="M107.84 95.68a2 2 0 01-.41-4c8.22-1.73 14-6 17.3-12.71a24.47 24.47 0 002.47-9.57 2 2 0 114 0 28.3 28.3 0 01-2.87 11.31c-2.63 5.42-8.25 12.4-20.07 14.88a2 2 0 01-.41 0z" class="cls-6"/>
        <path d="M131.61 95.68h-.37C117.6 93.13 112.25 81 112 80.46a2 2 0 013.67-1.58c0 .11 4.78 10.71 16.27 12.84a2 2 0 01-.36 4z" class="cls-6"/>
      </g>
      <g>
        <text class="cls-10" transform="translate(214.75 78.71)">
          Ea<tspan x="75.38" y="0" class="cls-11">s</tspan><tspan x="107.35" y="0">y</tspan>
        </text>
        <text class="cls-12" transform="translate(215.68 136.56)">
          <tspan class="cls-13">L</tspan><tspan x="27.17" y="0" class="cls-14">o</tspan><tspan x="58.08" y="0" class="cls-15">c</tspan><tspan x="84.7" y="0">a</tspan><tspan x="112.8" y="0" class="cls-16">l</tspan><tspan x="126.94" y="0">ization</tspan>
        </text>
      </g>
    </g>
  </g>
</svg>
